inDegrees=no
num_controls=7
num_derivatives=13
num_iterations=97
num_multipliers=7
num_parameters=0
num_slacks=7
num_states=26
objective=0.445868
objective_accelerations=0.057854
objective_balance=0.003506
objective_effort=0.023015
objective_height=0.355961
objective_ligament=0.005532
solver_duration=1333.440912
status=Solve_Succeeded
success=true
DataType=double
version=3
OpenSimVersion=4.5
endheader
time	/jointset/ground_pelvis/pelvis_tilt/value	/jointset/ground_pelvis/pelvis_tx/value	/jointset/ground_pelvis/pelvis_ty/value	/jointset/hip_l/hip_flexion_l/value	/jointset/hip_l/hip_adduction_l/value	/jointset/hip_l/hip_rotation_l/value	/jointset/back/lumbar_extension/value	/jointset/patellofemoral_l/patellar_flexion_l/value	/jointset/knee_l/knee_flexion_l/value	/jointset/knee_l/knee_adduction_l/value	/jointset/knee_l/knee_rotation_l/value	/jointset/ankle_l/ankle_angle_l/value	/jointset/subtalar_l/subtalar_angle_l/value	/jointset/ground_pelvis/pelvis_tilt/speed	/jointset/ground_pelvis/pelvis_tx/speed	/jointset/ground_pelvis/pelvis_ty/speed	/jointset/hip_l/hip_flexion_l/speed	/jointset/hip_l/hip_adduction_l/speed	/jointset/hip_l/hip_rotation_l/speed	/jointset/back/lumbar_extension/speed	/jointset/patellofemoral_l/patellar_flexion_l/speed	/jointset/knee_l/knee_flexion_l/speed	/jointset/knee_l/knee_adduction_l/speed	/jointset/knee_l/knee_rotation_l/speed	/jointset/ankle_l/ankle_angle_l/speed	/jointset/subtalar_l/subtalar_angle_l/speed	/forceset/tau_hip_flexion_l	/forceset/tau_hip_adduction_l	/forceset/tau_hip_rotation_l	/forceset/tau_knee_flexion_l	/forceset/tau_ankle_angle_l	/forceset/tau_subtalar_angle_l	/forceset/tau_lumbar_extension	lambda_cid13_p0	lambda_cid13_p1	lambda_cid13_p2	lambda_cid13_p3	lambda_cid13_p4	lambda_cid13_p5	lambda_cid14_p0	/jointset/ground_pelvis/pelvis_tilt/accel	/jointset/ground_pelvis/pelvis_tx/accel	/jointset/ground_pelvis/pelvis_ty/accel	/jointset/hip_l/hip_flexion_l/accel	/jointset/hip_l/hip_adduction_l/accel	/jointset/hip_l/hip_rotation_l/accel	/jointset/back/lumbar_extension/accel	/jointset/patellofemoral_l/patellar_flexion_l/accel	/jointset/knee_l/knee_flexion_l/accel	/jointset/knee_l/knee_adduction_l/accel	/jointset/knee_l/knee_rotation_l/accel	/jointset/ankle_l/ankle_angle_l/accel	/jointset/subtalar_l/subtalar_angle_l/accel	gamma_cid13_p0	gamma_cid13_p1	gamma_cid13_p2	gamma_cid13_p3	gamma_cid13_p4	gamma_cid13_p5	gamma_cid14_p0
0	-0.03681482596800747	0.06771547171086516	0.8958420074836755	0.1955287580552426	-0.3231254304759978	-0.4607942462407204	-0.1379045077516729	0.07015288079085272	0.07015288079084844	-0.1745325105990009	-0.09639259461812821	-0.06701059314715049	0.002359301940166344	0	0	0	0	0	0	0	0	0	0	0	0	0	0.1092470836165837	-0.1001018696770826	-0.02731084646468129	-0.2421500574629878	0.2039049188047471	-0.01398651798737459	-0.05300742828755899	30.00341816636146	-0.9763385653702987	1.872689173929928	-3.66514745323267	-515.483125791574	-79.70210343295197	-39.36904049704018	-4.391271340103996	-1.762785932009835	-0.9701337651083687	12.45482510145128	-2.064595440766285	3.26872869907639	-2.81350585303521	10.33041746411745	10.33041746411586	0.6051670833940591	-0.9231218016328896	2.492135431475519	-0.9105242624637346	-3.7838234420309e-08	9.143162600744215e-08	1.400909721832571e-07	1.835937446096271e-08	-5.088780877565998e-08	-6.935664313928433e-08	-1.215030530811217e-08
0.01	-0.03702381813148614	0.06762797553636681	0.8957949055216542	0.1961313012518336	-0.3232270327381335	-0.4606300545593673	-0.1380509680346549	0.07065465412729778	0.07065465412732012	-0.1745055266678675	-0.09643259345625869	-0.06689155956023483	0.002312486618603124	-0.04156159092261814	-0.01747669989454914	-0.009390915438211606	0.1200020376283945	-0.02021069006662411	0.03271001375882841	-0.02902575049353675	0.09990747302549262	0.0999074730254909	0.005398365091354072	-0.007954741329515543	0.0236348958817164	-0.009337611878988347	0.1022999999353388	-0.09971940865764393	-0.02568581989757989	-0.2312293620372933	0.1868814162597981	-0.00782595896677475	-0.04748863635110558	24.72753658911782	-2.803556938187147	2.250186413157429	-0.7274374964319079	-516.220162038721	-83.92405890064946	-39.37932230389119	-4.003086583112732	-1.736728095764704	-0.9191590658436801	11.69689201651643	-1.9828715945872	3.252871808120475	-2.907163731984554	9.753835511550275	9.753835511550715	0.5074406009309386	-0.7248800720761573	2.273393645552876	-0.9415922090614136	-7.142757864365361e-08	1.389707442456148e-07	2.123280775858188e-07	5.13181144267039e-08	-2.586233173660813e-07	-1.101470337887104e-07	-1.551129770076145e-08
0.02	-0.0376413229271484	0.06736638914740505	0.8956547766787176	0.1979186646093025	-0.3235274550619314	-0.4601426159216625	-0.1384796966394671	0.07214208685200819	0.07214208685200728	-0.174424505209962	-0.09655078566227498	-0.06654133161869576	0.002173052666561045	-0.08170252643612529	-0.03481804289267927	-0.01860537618305494	0.2369640321760851	-0.03976401233231959	0.06464939127103904	-0.05645366436592726	0.1971318776423918	0.1971318776423871	0.0108075053397036	-0.01563867359765031	0.04623887092475971	-0.01852372609577765	0.0953529162541398	-0.09933694763819882	-0.02406079333100473	-0.2203086666114538	0.16985791371489	-0.001665399946139914	-0.04196984441465264	19.51485602151555	-4.643681584368028	2.631844270024748	2.04455910655004	-516.034803949084	-87.98896723993623	-39.40961037612166	-4.107140258281727	-1.735714552726115	-0.9348428264347196	11.84681648531052	-1.933121880580586	3.114601449752836	-2.493938528805932	9.793803782398788	9.793803782396944	0.6073221147930923	-0.8689599893567554	2.285951263740801	-0.8802247300240087	-1.050169228669982e-07	1.865098624837874e-07	2.845651829883806e-07	8.42768543924451e-08	-4.663588259565027e-07	-1.509374244381366e-07	-1.887229009341074e-08
0.03	-0.03865425747285297	0.06693289396850043	0.8954230957988634	0.200861088657379	-0.3240200486446306	-0.4593399486887864	-0.1391744177106213	0.07458900890502829	0.07458900890500755	-0.1742891591162589	-0.09674485311457316	-0.06596898268479121	0.001943256053652327	-0.1206950750292967	-0.05177282975935708	-0.02772114744482639	0.3509641843643571	-0.05863912327205115	0.09574172684258771	-0.08226148955246507	0.2918034523759815	0.2918034523759891	0.0162501960797512	-0.0231275697813898	0.06815746451477289	-0.02735164947806235	0.0916734013943018	-0.09649520742106997	-0.02355422864304416	-0.217695560291051	0.1675428018578731	-0.001761167853493848	-0.03880113185165344	18.80121313874448	-4.539573431905094	2.686565025630599	1.87688313656321	-515.991095478425	-87.17451723589188	-39.45868452086463	-3.766928191562216	-1.659119296019346	-0.8985905357071819	11.09310585747801	-1.847421680807471	3.085163714038671	-2.5898454666578	9.236476019334567	9.236476019337069	0.5110798632014004	-0.681733379132659	2.133795214069476	-0.8715456436268935	-1.334339050164615e-07	2.05005945588756e-07	3.381843269738573e-07	1.124491809584932e-07	-6.371607185484755e-07	-1.878112285078185e-07	-2.254227494656051e-08
0.04	-0.0400514407108351	0.06633309921245251	0.8951005279544597	0.2049268124817279	-0.3246979365327561	-0.4582306352795633	-0.1401203452242543	0.07796917504546687	0.07796917504546542	-0.1740997186532581	-0.09701238531799747	-0.06517965145349887	0.001627686306661551	-0.1585522648915586	-0.0680779583213362	-0.03678276909293132	0.4616239874283208	-0.07682287341730357	0.1259786265414448	-0.1066949528621949	0.3837806951293933	0.3837806951294043	0.0216263792034301	-0.03033162381513376	0.08963533040230158	-0.03567835291219582	0.08799388653461389	-0.09365346720394596	-0.02304766395484343	-0.2150824539706092	0.1652276900008815	-0.001856935760842051	-0.03563241928854825	18.14534967521904	-4.446675142540042	2.744322037932423	1.556507072291702	-515.1079579486186	-86.21199866100578	-39.52499465191511	-3.88006851209975	-1.605782891786468	-0.9240129037014169	11.17874666044891	-1.794849721684752	2.943514275214523	-2.219066153444298	9.254937386363242	9.254937386359602	0.5940205915193592	-0.8119915593576685	2.197805723243805	-0.7799807403938144	-1.617442405252262e-07	2.229032032270606e-07	3.914195954661984e-07	1.405228185884651e-07	-8.072010932848101e-07	-2.246042782150315e-07	-2.621863077827731e-08
0.05	-0.04182224244477015	0.06557338827576226	0.8946873229796247	0.2100839552784642	-0.3255542095334479	-0.4568234054794291	-0.1413028885330538	0.08225656194401373	0.08225656194401142	-0.1738567041833126	-0.09735105156062333	-0.0641775554285388	0.001231441819953527	-0.1954154094884605	-0.08376360240438205	-0.0458674723746712	0.569261694980369	-0.09431317275107975	0.1553358410743701	-0.1295772812385365	0.4732461444720801	0.4732461444720821	0.02694944668021835	-0.03734466479215656	0.1106947157447179	-0.04349341890061525	0.08344693906918536	-0.09037508623234615	-0.02235968126702787	-0.211793644778965	0.1615284895632152	-0.00167333544781508	-0.03189436795917761	17.04546716072812	-4.411770053511038	2.827781827574674	1.667116136152468	-514.2946381429412	-85.3680465484529	-39.60660874683251	-3.560547846039322	-1.534832843557004	-0.9022488297878167	10.47482691097158	-1.708401890786756	2.912049116254798	-2.287352030788435	8.724772965265473	8.724772965266322	0.4974727045419213	-0.6373670585223311	2.046628466610551	-0.7707795676478901	-1.797328264905583e-07	2.241211435574765e-07	4.282464032411759e-07	1.580553005914115e-07	-9.143154519322768e-07	-2.508051496560555e-07	-2.931963542937626e-08
